# xmcd CD database file
#
# Track frame offsets:
#	150
#	14562
#	27618
#	39688
#	51001
#	63155
#	74399
#	87234
#	101307
#	114843
#	126182
#	135363
#	150160
#	162918
#	175273
#	188203
#	199754
#	211704
#	223642
#	233149
#	245698
#	257538
#
# Disc length: 3635 seconds
#
# Revision: 0
# Processed by: cddbd v1.5.2PL0 Copyright (c) Steve Scherf et al.
# Submitted via: CDex 1.70beta2
#
DISCID=280e3116
DTITLE=GOC - Grand Old Country - D2
DYEAR=2010
DGENRE=Country
TTITLE0=Slim Whitman - Danny Boy
TTITLE1=Roy Rogers - Don't Fence Me In
TTITLE2=Gene Autry - Blueberry Hill
TTITLE3=Porter Wagoner - Lovew At First Sight
TTITLE4=Burl Ives - Cowboys Lament
TTITLE5=Roy Acuff - Not A Word From Home
TTITLE6=Slim Whitman - Restless Heart
TTITLE7=Roy Rogers - Pecos Bill
TTITLE8=Red Foley - Smoke On the Water
TTITLE9=Hank Williams - Cerazy Heart
TTITLE10=Hank Snow - Hula Rock
TTITLE11=Tennessee Ernie Ford - The City of the Wild Goose
TTITLE12=Ernest Tubb - Careless Darlin'
TTITLE13=Tex Ritter - Rock and Rye
TTITLE14=Iex Williams and His Western Caravan - That's What i Like About the West
TTITLE15=Jimmy Wakely - Broken Down Merry Go Round
TTITLE16=Merle Travis - Cincinnati Lou
TTITLE17=Hank Williams - Dear John
TTITLE18=Faronh Young - It's A Great Life
TTITLE19=Hank Thompson - Breakin' the Rules
TTITLE20=Hank Williams - Kaw-Liga
TTITLE21=Gene Autry - Tumbling Tumbleweed
EXTD=YEAR: 2010
EXTT0=
EXTT1=
EXTT2=
EXTT3=
EXTT4=
EXTT5=
EXTT6=
EXTT7=
EXTT8=
EXTT9=
EXTT10=
EXTT11=
EXTT12=
EXTT13=
EXTT14=
EXTT15=
EXTT16=
EXTT17=
EXTT18=
EXTT19=
EXTT20=
EXTT21=
PLAYORDER=
